<svg width="39" height="39" viewBox="0 0 39 39" fill="none" xmlns="http://www.w3.org/2000/svg">
<circle cx="18.9147" cy="19.2469" r="7.24406" transform="rotate(-19.9862 18.9147 19.2469)" fill="#0000FF"/>
<ellipse cx="15.9405" cy="10.5522" rx="3.18032" ry="5.83059" transform="rotate(-19.9862 15.9405 10.5522)" fill="#0000FF"/>
<ellipse cx="10.5521" cy="22.1004" rx="3.18032" ry="5.83059" transform="rotate(-109.986 10.5521 22.1004)" fill="#0000FF"/>
<ellipse cx="9.97718" cy="14.8009" rx="3.18032" ry="5.83059" transform="rotate(-64.9862 9.97718 14.8009)" fill="#0000FF"/>
<ellipse cx="27.1861" cy="22.8306" rx="3.18032" ry="5.83059" transform="rotate(-64.9862 27.1861 22.8306)" fill="#0000FF"/>
<ellipse cx="23.2607" cy="9.96968" rx="3.18032" ry="5.83059" transform="rotate(25.0138 23.2607 9.96968)" fill="#0000FF"/>
<ellipse cx="15.2309" cy="27.1787" rx="3.18032" ry="5.83059" transform="rotate(25.0138 15.2309 27.1787)" fill="#0000FF"/>
<ellipse cx="27.4886" cy="15.9406" rx="3.18032" ry="5.83059" transform="rotate(-109.986 27.4886 15.9406)" fill="#0000FF"/>
<ellipse cx="22.3418" cy="28.1528" rx="3.18032" ry="5.83059" transform="rotate(-19.9862 22.3418 28.1528)" fill="#0000FF"/>
</svg>
